<svg xmlns="http://www.w3.org/2000/svg" width="800" height="800" viewBox="0 0 800 800" version="1.1"><path d="M 210.595 196.750 C 209.883 199.059, 122.023 597.542, 121.298 601.750 L 120.738 605 173.869 605 C 203.091 605, 226.999 604.663, 226.998 604.250 C 226.992 602.348, 285.300 338.417, 285.862 337.802 C 286.213 337.419, 296.181 397.269, 308.012 470.802 L 329.525 604.500 353.119 604.768 L 376.714 605.036 457.535 471.029 C 501.986 397.325, 538.513 337.179, 538.705 337.371 C 538.958 337.624, 489.855 562.424, 481.175 600.750 L 480.213 605 533.356 604.995 L 586.500 604.990 629.930 407.745 C 653.816 299.260, 674.130 207.012, 675.072 202.750 L 676.783 195 601.142 195.022 L 525.500 195.043 458 307.913 C 420.875 369.992, 390.400 420.694, 390.278 420.586 C 389.983 420.324, 355 197.868, 355 196.253 C 355 195.261, 340.048 195, 283.067 195 C 215.432 195, 211.103 195.105, 210.595 196.750" stroke="none" fill="#fcfbfb" fill-rule="evenodd"/><path d="M 163 1.639 C 79.006 14.398, 13.814 80.010, 1.550 164.128 C 0.186 173.480, 0 201.820, 0 400 C -0 647.391, -0.331 633.250, 6.034 657.837 C 23.104 723.779, 76.221 776.896, 142.163 793.966 C 166.746 800.330, 152.711 800, 399 800 C 596.276 800, 624.521 799.814, 633.872 798.450 C 695.287 789.496, 747.792 752.410, 776.424 697.758 C 783.488 684.275, 788.365 671.749, 791.966 657.837 C 798.331 633.250, 798 647.391, 798 400 C 798 152.609, 798.331 166.750, 791.966 142.163 C 774.908 76.266, 721.734 23.092, 655.837 6.034 C 631.222 -0.338, 645.492 -0.010, 397.872 0.098 C 206.912 0.181, 171.049 0.417, 163 1.639 M 210.595 196.750 C 209.883 199.059, 122.023 597.542, 121.298 601.750 L 120.738 605 173.869 605 C 203.091 605, 226.999 604.663, 226.998 604.250 C 226.992 602.348, 285.300 338.417, 285.862 337.802 C 286.213 337.419, 296.181 397.269, 308.012 470.802 L 329.525 604.500 353.119 604.768 L 376.714 605.036 457.535 471.029 C 501.986 397.325, 538.513 337.179, 538.705 337.371 C 538.958 337.624, 489.855 562.424, 481.175 600.750 L 480.213 605 533.356 604.995 L 586.500 604.990 629.930 407.745 C 653.816 299.260, 674.130 207.012, 675.072 202.750 L 676.783 195 601.142 195.022 L 525.500 195.043 458 307.913 C 420.875 369.992, 390.400 420.694, 390.278 420.586 C 389.983 420.324, 355 197.868, 355 196.253 C 355 195.261, 340.048 195, 283.067 195 C 215.432 195, 211.103 195.105, 210.595 196.750" stroke="none" fill="#fc0468" fill-rule="evenodd"/></svg>