<?xml version="1.0" encoding="UTF-8"?>
<!DOCTYPE svg PUBLIC "-//W3C//DTD SVG 1.1//EN" "http://www.w3.org/Graphics/SVG/1.1/DTD/svg11.dtd">
<svg xmlns="http://www.w3.org/2000/svg" version="1.1" width="192px" height="192px" style="shape-rendering:geometricPrecision; text-rendering:geometricPrecision; image-rendering:optimizeQuality; fill-rule:evenodd; clip-rule:evenodd" xmlns:xlink="http://www.w3.org/1999/xlink">
<g><path style="opacity:0.478" fill="#bd0849" d="M 38.5,-0.5 C 76.8333,-0.5 115.167,-0.5 153.5,-0.5C 158.079,0.858315 162.746,2.35832 167.5,4C 169.362,5.36569 171.028,6.86569 172.5,8.5C 165.67,4.72284 158.337,2.22284 150.5,1C 112.998,0.832561 75.6644,0.332561 38.5,-0.5 Z"/></g>
<g><path style="opacity:1" fill="#fe015c" d="M 37.5,-0.5 C 37.8333,-0.5 38.1667,-0.5 38.5,-0.5C 75.6644,0.332561 112.998,0.832561 150.5,1C 158.337,2.22284 165.67,4.72284 172.5,8.5C 179.038,12.2888 183.704,17.2888 186.5,23.5C 187.79,29.033 189.457,34.3664 191.5,39.5C 191.5,78.1667 191.5,116.833 191.5,155.5C 188.964,166.34 182.964,175.507 173.5,183C 170.369,185.899 166.702,187.732 162.5,188.5C 162.44,187.957 162.107,187.624 161.5,187.5C 157.887,188.523 154.221,189.356 150.5,190C 112.835,190.5 75.1681,190.667 37.5,190.5C 37.1667,190.5 36.8333,190.5 36.5,190.5C 31.4499,188.478 26.4499,186.144 21.5,183.5C 20.8933,183.624 20.56,183.957 20.5,184.5C 19.8333,184.5 19.5,184.167 19.5,183.5C 15.1764,179.333 11.3431,174.666 8,169.5C 7.32924,168.748 6.4959,168.414 5.5,168.5C 5.5,168.167 5.5,167.833 5.5,167.5C 3.55958,161.971 2.05958,156.304 1,150.5C 0.333333,113.5 0.333333,76.5 1,39.5C 2.19382,34.0846 3.69382,28.7513 5.5,23.5C 9.05562,18.599 13.0556,13.9323 17.5,9.5C 23.1211,4.07104 29.7877,0.737702 37.5,-0.5 Z"/></g>
<g><path style="opacity:0.741" fill="#af0f46" d="M 17.5,9.5 C 13.0556,13.9323 9.05562,18.599 5.5,23.5C 7.71629,17.2852 11.7163,12.6185 17.5,9.5 Z"/></g>
<g><path style="opacity:0.086" fill="#8c143d" d="M 186.5,23.5 C 188.56,27.3491 190.227,31.3491 191.5,35.5C 191.5,36.8333 191.5,38.1667 191.5,39.5C 189.457,34.3664 187.79,29.033 186.5,23.5 Z"/></g>
<g><path style="opacity:0.353" fill="#a10d42" d="M 5.5,23.5 C 3.69382,28.7513 2.19382,34.0846 1,39.5C 0.333333,76.5 0.333333,113.5 1,150.5C 2.05958,156.304 3.55958,161.971 5.5,167.5C 4.50278,167.53 3.83611,167.03 3.5,166C 2.0248,161.746 0.691466,157.579 -0.5,153.5C -0.5,114.833 -0.5,76.1667 -0.5,37.5C 0.524565,33.9207 1.69123,30.2541 3,26.5C 3.37675,25.0577 4.21009,24.0577 5.5,23.5 Z"/></g>
<g><path style="opacity:1" fill="#fffcfd" d="M 78.5,81.5 C 77.9569,81.56 77.6236,81.8933 77.5,82.5C 91.661,83.8257 105.661,83.8257 119.5,82.5C 121.85,70.4331 124.517,58.4331 127.5,46.5C 136.167,45.1667 144.833,45.1667 153.5,46.5C 146.259,79.381 138.926,112.214 131.5,145C 122.833,145.667 114.167,145.667 105.5,145C 108.245,131.944 111.245,118.944 114.5,106C 100.504,105.5 86.504,105.333 72.5,105.5C 70.0405,118.877 67.3739,132.211 64.5,145.5C 55.8333,145.5 47.1667,145.5 38.5,145.5C 45.5115,112.432 52.8448,79.4322 60.5,46.5C 69.1667,45.1667 77.8333,45.1667 86.5,46.5C 83.5117,58.0979 80.8451,69.7645 78.5,81.5 Z"/></g>
<g><path style="opacity:1" fill="#ffd4de" d="M 78.5,81.5 C 91.9898,82.4957 105.656,82.829 119.5,82.5C 105.661,83.8257 91.661,83.8257 77.5,82.5C 77.6236,81.8933 77.9569,81.56 78.5,81.5 Z"/></g>
<g><path style="opacity:0.086" fill="#9f0d41" d="M 5.5,168.5 C 6.4959,168.414 7.32924,168.748 8,169.5C 11.3431,174.666 15.1764,179.333 19.5,183.5C 13.4497,179.783 8.78308,174.783 5.5,168.5 Z"/></g>
<g><path style="opacity:0.137" fill="#a80e44" d="M 20.5,184.5 C 20.56,183.957 20.8933,183.624 21.5,183.5C 26.4499,186.144 31.4499,188.478 36.5,190.5C 30.5803,189.863 25.247,187.863 20.5,184.5 Z"/></g>
<g><path style="opacity:0.561" fill="#d1054e" d="M 162.5,188.5 C 159.748,189.512 157.081,190.512 154.5,191.5C 115.5,191.5 76.5,191.5 37.5,191.5C 37.5,191.167 37.5,190.833 37.5,190.5C 75.1681,190.667 112.835,190.5 150.5,190C 154.221,189.356 157.887,188.523 161.5,187.5C 162.107,187.624 162.44,187.957 162.5,188.5 Z"/></g>
</svg>
